<?xml version="1.0"?><!DOCTYPE svg  PUBLIC '-//W3C//DTD SVG 1.1//EN'  'http://www.w3.org/Graphics/SVG/1.1/DTD/svg11.dtd'><svg height="512px" style="enable-background:new 0 0 512 512;" version="1.1" viewBox="0 0 512 512" width="512px" xml:space="preserve" xmlns="http://www.w3.org/2000/svg" xmlns:xlink="http://www.w3.org/1999/xlink"><g id="map_pin_destination_location_adress_bus_stop"><path d="M256.001,0C153.683,0,70.737,82.947,70.737,185.264C70.737,332.734,256.001,512,256.001,512   s185.262-179.266,185.262-326.736C441.263,82.947,358.318,0,256.001,0z M357.235,179.653c0,4.422-3.698,8.006-8.262,8.006h-7.173   v65.783h-9.123v17.848c0,6.275-5.25,11.363-11.726,11.363h-15.987c-6.476,0-11.727-5.088-11.727-11.363v-17.848   c-10.896,0-64.035,0-74.934,0v17.848c0,6.275-5.25,11.363-11.728,11.363h-15.985c-6.477,0-11.726-5.088-11.726-11.363v-17.848   h-8.667v-65.783h-7.173c-4.563,0-8.262-3.584-8.262-8.006v-40.569c0-4.421,3.698-8.007,8.262-8.007h7.173v-23.562   c0-18.086,15.78-27.333,33.136-27.333h52.653h0.022h52.654c17.355,0,33.136,9.247,33.136,27.333v23.562h7.173   c4.563,0,8.262,3.585,8.262,8.007V179.653z M210.188,223.897c0,7.386-6.18,13.374-13.802,13.374c-7.621,0-13.8-5.988-13.8-13.374   c0-7.389,6.179-13.377,13.8-13.377C204.008,210.521,210.188,216.508,210.188,223.897z M184.775,118.313h61.376v71.155h-61.376   V118.313z M327.225,189.467h-61.376v-71.155h61.376V189.467z M329.414,223.897c0,7.386-6.179,13.374-13.8,13.374   c-7.622,0-13.803-5.988-13.803-13.374c0-7.389,6.181-13.377,13.803-13.377C323.235,210.521,329.414,216.508,329.414,223.897z"/></g><g id="Capa_1"/></svg>