<svg id="svg" fill="#000000" stroke="#000000" width="200px" height="200px" version="1.1" viewBox="144 144 512 512" xmlns="http://www.w3.org/2000/svg">
    <g id="IconSvg_bgCarrier" stroke-width="0"></g>
    <g id="IconSvg_tracerCarrier" stroke-linecap="round" stroke-linejoin="round" stroke="#CCCCCC"></g>
     <g id="IconSvg_iconCarrier">
      <path xmlns="http://www.w3.org/2000/svg" d="m591.8 525.65h-0.52734l-0.003906-140.01c0-0.12109-0.085938-0.22266-0.085938-0.34375 0-0.12109 0.085938-0.22266 0.085938-0.34375l-33.273-148.61c0-0.84766-0.24609-1.6367-0.59766-2.3867 0-0.074219 0.039062-0.15234 0.039062-0.22656 0-22.188-70.488-40.18-157.45-40.18-86.957 0-157.44 17.984-157.44 40.18 0 0.074219 0.039062 0.15234 0.039062 0.22656-0.34766 0.74609-0.59375 1.543-0.59375 2.3867l-33.277 148.61c0 0.12109 0.089844 0.22266 0.089844 0.34375 0 0.12109-0.089844 0.22266-0.089844 0.34375l0.003906 140.01h-0.52734c-4.0703 0-7.3672 5.2969-7.3672 11.824v11.812c0 6.5352 3.293 11.824 7.3672 11.824h31.547v37.961c0 4.0703 3.2891 7.3711 7.3672 7.3711h40.52c4.0703 0 7.3672-3.3008 7.3672-7.3711v-37.961h210v37.961c0 4.0703 3.2891 7.3711 7.3672 7.3711h40.527c4.0742 0 7.3711-3.3008 7.3711-7.3711v-37.961h31.543c4.0703 0 7.3672-5.2891 7.3672-11.824v-11.812c-0.003906-6.5273-3.2969-11.824-7.3672-11.824zm-260.65-302.09c0-4.0703 3.293-7.3711 7.3672-7.3711h122.96c4.0703 0 7.3672 3.3008 7.3672 7.3711v17.957c0 4.0703-3.293 7.3711-7.3672 7.3711l-122.96-0.003906c-4.0703 0-7.3672-3.3008-7.3672-7.3711v-17.953zm-84.039 58.023c0-4.0703 3.2891-7.3711 7.3672-7.3711h291.05c4.0703 0 7.3672 3.3008 7.3672 7.3711l14.738 106.84c0 4.0703-18.031 7.3672-22.102 7.3672h-291.05c-4.082 0-22.105-3.293-22.105-7.3672zm295.19 167.43c0 11.09-8.4531 20.066-18.879 20.066-10.43 0-18.883-8.9766-18.883-20.066 0-11.082 8.4531-20.059 18.883-20.059 10.422 0 18.879 8.9727 18.879 20.059zm-246.84 0c0 11.09-8.4531 20.066-18.879 20.066-10.43 0-18.883-8.9766-18.883-20.066 0-11.082 8.4492-20.059 18.883-20.059 10.43 0 18.879 8.9727 18.879 20.059zm273.89 88.59h-338.7c-2.625 0-4.7461-2.1211-4.7461-4.7422 0-2.6211 2.1211-4.7461 4.7461-4.7461h338.71c2.625 0 4.7461 2.125 4.7461 4.7461 0 2.6211-2.1211 4.7422-4.7539 4.7422z"></path>

      </g>
      </svg>